<svg width="123" height="109" viewBox="0 0 123 109" fill="none" xmlns="http://www.w3.org/2000/svg">
<path d="M59.0628 0.372086C57.2411 0.7173 55.3527 1.5525 53.9975 2.58814C52.6534 3.63492 51.2204 5.41667 50.5428 6.93116C49.5098 9.21403 49.2987 12.2653 49.9985 14.8043C50.2985 15.8845 51.076 17.5326 51.7314 18.4569C52.0202 18.8578 53.542 20.4948 55.1194 22.0983C57.9076 24.9269 57.9853 25.0159 57.9187 25.3612C57.8409 25.7064 57.9076 25.7955 59.2961 27.1875L60.7624 28.6574L59.596 29.6596C58.2852 30.7844 57.6076 31.163 56.8634 31.163C55.8526 31.163 55.4193 30.8289 51.8647 27.2988C49.7542 25.1941 48.4989 23.8578 48.3434 23.5571C47.988 22.8444 47.9324 22.2876 48.1657 21.4859C48.3323 20.8845 48.3323 20.7731 48.199 20.6841C47.988 20.5504 42.2672 20.5616 40.4344 20.6952C38.4571 20.8511 37.2908 21.1406 35.9356 21.8088C32.903 23.301 30.6259 26.0516 29.7483 29.2699C29.5262 30.1162 29.4928 30.4503 29.5039 32.3879C29.5039 34.2588 29.5373 34.6819 29.7483 35.4503C30.5925 38.5795 33.2474 41.6308 36.18 42.8557C37.8462 43.5573 38.5127 43.6798 40.7121 43.6798C43.1004 43.6909 44.0557 43.4905 45.8219 42.633C47.2104 41.9649 47.9435 41.3412 51.2982 38.0227C53.7753 35.5617 53.8975 35.4615 54.3196 35.4615C54.7306 35.4503 54.8417 35.3612 56.1525 34.0583C57.3299 32.8779 57.5743 32.6886 57.7409 32.7888C58.0853 33.0004 59.6293 34.8713 59.8848 35.3724C60.0181 35.6508 60.1514 36.0851 60.1847 36.3412C60.2958 37.3546 59.6738 38.1452 55.4749 42.3101C52.4757 45.2834 52.309 45.3947 51.0649 45.2611C50.6872 45.2277 50.2096 45.1609 50.0208 45.1275L49.6542 45.0607V49.103C49.6542 53.6019 49.743 54.4928 50.3318 56.2746C51.2204 58.9472 53.3199 61.3525 55.9414 62.7C58.6185 64.0809 61.9509 64.4038 64.7058 63.5463C67.6939 62.6109 70.5154 60.161 71.7039 57.4884C73.148 54.2255 73.0702 50.4727 71.4818 47.3101C70.8153 45.9738 70.4376 45.5284 67.3495 42.3992C64.528 39.5484 64.4281 39.4259 64.4281 39.0138C64.4281 38.6018 64.3392 38.4904 63.0173 37.143L61.5955 35.7176L62.0954 35.2722C64.4614 33.1563 65.3278 32.8 66.6053 33.4459C67.3606 33.8245 73.5146 39.849 73.9922 40.6731C74.3588 41.319 74.4143 42.1208 74.1811 43.0228C74.0589 43.4571 74.07 43.5573 74.2033 43.6464C74.3144 43.7243 75.8917 43.7355 78.6465 43.7021C82.1012 43.6687 83.0787 43.613 83.7563 43.4682C87.3776 42.6553 90.2879 40.339 91.8764 37.0094C92.5429 35.6062 92.8539 34.359 92.9428 32.722C93.1205 29.2587 92.1874 26.6084 89.9436 24.203C88.8216 22.9892 87.9552 22.3433 86.5889 21.6863C85.167 20.9959 83.9563 20.7063 82.1901 20.6172C79.3353 20.4836 76.8692 21.2075 74.7031 22.8444C74.281 23.1562 72.9258 24.4257 71.7039 25.6618C68.7269 28.6574 68.3715 28.9692 68.0049 28.8801C67.7272 28.8244 67.4051 29.1251 64.4836 32.0539C62.7174 33.8245 61.24 35.2833 61.2067 35.2833C61.0734 35.2833 58.2075 32.31 58.2075 32.1764C58.2075 32.0984 58.874 31.3634 59.6849 30.5394L61.1512 29.0472L62.6174 30.4948C63.4283 31.2966 64.1393 31.9425 64.1948 31.9425C64.2614 31.9425 64.3614 31.8423 64.4281 31.7198C64.528 31.5416 64.4614 31.408 64.0171 30.918C63.0395 29.8378 62.6619 29.3144 62.3619 28.6685C61.9843 27.8333 62.0509 27.2431 62.6063 26.3857C63.2062 25.4837 68.9713 19.6818 69.6156 19.3255C70.3487 18.9357 71.0152 18.8578 71.815 19.0693C72.2704 19.1807 72.5148 19.203 72.5926 19.125C72.737 18.9803 72.6814 11.3967 72.5259 10.194C72.326 8.65723 71.5595 6.68617 70.6375 5.31645C69.0602 2.96676 66.6497 1.32978 63.595 0.539127C62.4064 0.227318 60.2403 0.149368 59.0628 0.372086ZM63.8171 1.30751C65.8943 1.87544 68.0938 3.31198 69.4045 4.9601C70.5598 6.40777 70.9708 7.46569 70.9819 8.99131C70.9819 10.6506 70.3709 12.076 68.7936 14.0804C67.705 15.4724 58.9295 24.3701 58.6518 24.3701C58.4408 24.3701 52.7312 18.6239 52.1757 17.8444C51.6092 17.0426 50.9205 15.5615 50.6317 14.5147C50.2985 13.2787 50.2651 10.0047 50.5762 8.89109C51.0871 7.08706 52.2535 5.16055 53.5976 3.89105C55.1527 2.44337 56.6634 1.65272 58.8851 1.1516C59.9515 0.906612 62.6508 0.995701 63.8171 1.30751ZM84.3117 21.6195C86.6555 22.2208 88.444 23.4012 89.988 25.35C91.6653 27.4547 92.4096 29.8155 92.2652 32.555C92.1319 35.3278 91.0544 37.7777 89.1438 39.682C86.1223 42.7221 83.112 42.8112 79.3686 39.9938C78.4133 39.27 69.2046 30.2498 68.9602 29.7821C68.8602 29.604 69.2268 29.1919 71.6595 26.742C73.2146 25.183 74.8031 23.6685 75.1919 23.3678C77.6801 21.4859 81.1792 20.8177 84.3117 21.6195ZM38.9681 22.3656C40.0123 22.5438 41.012 22.9892 42.3228 23.8578C43.3114 24.526 44.2223 25.35 48.3656 29.4258C51.0427 32.065 53.3088 34.3367 53.4088 34.4815C53.5754 34.7376 53.542 34.7822 50.8094 37.5216C49.2876 39.0584 47.7214 40.5506 47.3215 40.8624C44.1667 43.2678 39.8123 43.7355 36.2355 42.0651C35.0136 41.5083 34.1138 40.8513 33.1585 39.8268C31.0258 37.5884 30.1038 35.3056 30.1038 32.2766C30.1038 29.4369 31.1146 26.8756 33.0586 24.8266C34.336 23.4569 35.5246 22.7219 36.9131 22.4213C37.7684 22.232 38.0906 22.232 38.9681 22.3656ZM66.7719 42.8223C70.3932 46.4861 71.0597 47.4326 71.6373 49.7266C71.8817 50.6954 72.0816 52.5774 72.015 53.2678C71.8594 54.9716 71.5262 56.2634 70.9819 57.3325C69.86 59.5374 67.5161 61.7089 65.3278 62.5552C64.0504 63.0452 62.9618 63.2345 61.3511 63.2345C58.1964 63.2345 55.8192 62.2657 53.6531 60.1165C52.098 58.5797 51.4426 57.2991 51.3537 55.6064C51.2649 53.9917 51.6203 52.9004 52.8422 51.0407C53.4754 50.083 54.253 49.2478 58.5852 44.8825C61.3289 42.1208 63.6394 39.849 63.706 39.849C63.7727 39.849 65.1501 41.1853 66.7719 42.8223Z" fill="#341D2B"/>
<path d="M4.62101 81.5302C1.85507 87.0091 1.05528 88.4011 0.36657 88.9245C0.166623 89.0804 0 89.2363 0 89.2808C0 89.3142 0.777573 89.3477 1.72177 89.3477C2.66596 89.3477 3.44354 89.3254 3.44354 89.292C3.44354 89.2586 3.29913 89.1583 3.1214 89.047C2.66596 88.7909 2.41048 88.2452 2.46602 87.6884C2.49934 87.4323 2.94367 86.3075 3.46575 85.1717L4.40995 83.1115H6.88708H9.37531L10.4417 85.4612C11.0304 86.753 11.5525 87.9223 11.5858 88.067C11.6636 88.3677 11.397 89.0247 11.1526 89.1138C10.7083 89.2808 11.1748 89.3477 12.941 89.3477C14.0074 89.3477 14.885 89.3142 14.885 89.2697C14.885 89.2252 14.7072 89.0581 14.4962 88.8911C14.2851 88.7352 13.9408 88.3677 13.7297 88.0782C13.5298 87.7998 12.0413 85.0046 10.4417 81.8866C8.84212 78.7574 7.50913 76.1738 7.4647 76.1293C7.42027 76.0959 6.14283 78.5235 4.62101 81.5302ZM7.98679 80.3387C8.60884 81.5414 9.0976 82.5547 9.07539 82.577C9.05317 82.5993 8.05344 82.5993 6.85375 82.5881L4.68765 82.5547L5.74293 80.3498C6.33167 79.1471 6.82043 78.156 6.84264 78.156C6.85375 78.156 7.37584 79.136 7.98679 80.3387Z" fill="#341D2B"/>
<path d="M92.2097 81.4189C89.3216 87.1427 88.8218 88.0113 88.0331 88.7686C87.7554 89.0358 87.5332 89.2697 87.5332 89.3031C87.5332 89.3254 88.3108 89.3477 89.255 89.3477C90.1992 89.3477 90.9767 89.3142 90.9767 89.2808C90.9767 89.2474 90.8546 89.1583 90.699 89.0915C90.5435 89.0247 90.3214 88.802 90.1992 88.6015C89.8104 87.9557 89.8992 87.5325 90.9656 85.2274L91.932 83.1115H94.4203H96.8974L97.9971 85.4946C99.1968 88.1338 99.2857 88.5236 98.808 88.969C98.6636 89.1138 98.5303 89.2586 98.5303 89.292C98.5303 89.3254 99.4079 89.3477 100.474 89.3477C101.541 89.3477 102.418 89.3365 102.418 89.3254C102.418 89.3031 102.107 88.9802 101.729 88.5904C101.063 87.9223 100.874 87.577 98.086 82.1204C96.4642 78.9467 95.0979 76.2852 95.0312 76.1961C94.9535 76.0847 94.2203 77.4433 92.2097 81.4189ZM95.5311 80.3832L96.6419 82.6104H94.4203H92.2097L92.5763 81.7975C93.1317 80.5948 94.3425 78.156 94.387 78.156C94.3981 78.156 94.9201 79.1583 95.5311 80.3832Z" fill="#341D2B"/>
<path d="M18.106 77.0313C18.106 77.0647 18.4281 77.3876 18.8169 77.7329C19.2834 78.156 20.2498 79.3476 21.6495 81.263L23.7711 84.1472V85.7507C23.7711 88.067 23.7045 88.4568 23.249 88.9134C23.0491 89.1138 22.8825 89.3031 22.8825 89.3142C22.8825 89.3365 23.66 89.3477 24.6042 89.3477C25.5484 89.3477 26.326 89.3254 26.326 89.292C26.326 89.2586 26.1594 89.1027 25.9483 88.9356C25.4374 88.5236 25.3263 87.9557 25.3263 85.6617V83.8242L27.3813 81.3298C28.5032 79.9712 29.8584 78.4456 30.3805 77.9667C30.9026 77.4767 31.3247 77.0536 31.3247 77.0313C31.3247 77.009 30.6249 76.9868 29.7696 76.9868C28.9142 76.9868 28.2144 76.9979 28.2144 77.0202C28.2144 77.0424 28.3699 77.1872 28.5477 77.3431C28.9698 77.6883 28.9809 78.1338 28.6032 78.8019C28.3477 79.2585 25.293 83.2117 25.1263 83.3231C25.0264 83.3899 21.9494 79.548 21.5273 78.8353C21.1496 78.2006 21.1385 77.8219 21.494 77.3988C21.6495 77.2095 21.7717 77.0424 21.7717 77.0202C21.7717 76.9868 20.9497 76.9645 19.9388 76.9645C18.928 76.9645 18.106 76.9979 18.106 77.0313Z" fill="#341D2B"/>
<path d="M38.5124 77.8219C39.0567 78.3565 40.112 79.6817 41.3561 81.3743L43.3334 84.0804L43.3001 86.3075L43.2667 88.5347L42.8557 88.9134C42.6225 89.1249 42.4336 89.3031 42.4336 89.3254C42.4336 89.3365 43.2334 89.3477 44.2109 89.3477C45.1885 89.3477 45.9882 89.3365 45.9882 89.3142C45.9882 89.3031 45.8105 89.1361 45.5995 88.9468C45.3884 88.7575 45.1662 88.4234 45.0996 88.2007C45.044 87.9779 44.9885 86.8866 44.9885 85.773V83.7685L46.7436 81.6527C49.0208 78.891 49.7428 78.0892 50.4204 77.5435C50.7314 77.2986 50.9869 77.0758 50.9869 77.0424C50.9869 77.009 50.2649 76.9868 49.3762 76.9868H47.7656L48.1766 77.332C48.5431 77.6438 48.5764 77.7106 48.5098 78.1003C48.4765 78.3342 48.3099 78.724 48.1543 78.9578C47.8766 79.3698 45.1218 82.9333 44.8219 83.2563C44.7108 83.3788 44.3664 83.0002 43.0224 81.3075C42.1004 80.1605 41.245 79.0358 41.1117 78.8242C40.8007 78.3008 40.8118 77.7663 41.1451 77.3208L41.4117 76.9756H39.5233H37.646L38.5124 77.8219Z" fill="#341D2B"/>
<path d="M58.0963 76.9557C58.0963 76.9891 58.2518 77.3009 58.4296 77.6461L58.7628 78.2809V82.9802C58.7628 86.0649 58.7184 87.8244 58.6406 88.1139C58.574 88.3589 58.3518 88.7152 58.1407 88.9157C57.9297 89.105 57.7631 89.2832 57.7631 89.3054C57.7631 89.3277 58.6184 89.3389 59.6515 89.3389C60.6956 89.3389 61.5398 89.3166 61.5398 89.2832C61.5398 89.2498 61.3843 89.1384 61.2066 89.0382C60.5734 88.6818 60.5179 88.3478 60.2846 84.0159L60.2402 83.1473L62.4174 83.1807C64.3502 83.2141 64.6501 83.2364 65.0945 83.4479C66.0942 83.9156 66.483 84.5393 67.4161 87.1562C67.7382 88.0359 68.0603 88.8934 68.1603 89.0716L68.3269 89.3945H69.5266C70.182 89.3945 70.7596 89.3611 70.793 89.3277C70.8374 89.2832 70.6486 89.0939 70.3931 88.8934C69.8932 88.5148 69.7266 88.2141 68.949 86.4212C68.027 84.2831 67.7604 83.9936 66.2719 83.3366L65.4166 82.9691L66.4497 82.7241C68.6046 82.223 69.5711 81.2207 69.3933 79.684C69.2822 78.7374 68.8268 78.1361 67.8493 77.635C66.7496 77.0782 66.2053 77.0114 62.0175 76.9557C59.8625 76.9223 58.0963 76.9223 58.0963 76.9557ZM65.5388 77.6016C66.7607 77.8577 67.2606 78.3588 67.4494 79.5058C67.6605 80.7864 67.1495 81.7441 65.9498 82.2787C65.4055 82.5236 65.2167 82.5459 62.7951 82.5793L60.2069 82.6239V79.9735V77.3343L62.5729 77.4011C63.8615 77.4345 65.2055 77.5236 65.5388 77.6016Z" fill="#341D2B"/>
<path d="M77.8688 77.0202C77.8688 77.0313 78.0021 77.254 78.1798 77.5101L78.4797 77.9779L78.4686 82.989C78.4575 87.5993 78.4464 88.0448 78.2576 88.4345C78.1465 88.6684 77.9354 88.9356 77.8021 89.0358C77.6577 89.1249 77.5355 89.2363 77.5355 89.2808C77.5355 89.3142 78.3131 89.3477 79.2573 89.3477C80.2015 89.3477 80.9791 89.3142 80.9791 89.2808C80.9791 89.2474 80.868 89.1249 80.7458 89.0024C80.6125 88.8911 80.4125 88.5793 80.2904 88.312C80.1015 87.8888 80.0793 87.4323 80.0126 83.0781C79.946 78.0781 79.9682 77.7329 80.4237 77.3208C80.5458 77.2095 80.6458 77.087 80.6458 77.0536C80.6458 77.0202 80.0238 76.9868 79.2573 76.9868C78.4908 76.9868 77.8688 76.9979 77.8688 77.0202Z" fill="#341D2B"/>
<path d="M109.305 77.0191C109.305 77.0414 109.483 77.2641 109.694 77.5202C109.916 77.7763 110.138 78.155 110.205 78.3777C110.282 78.6338 110.305 80.2931 110.282 83.1661C110.238 88.1885 110.205 88.3889 109.405 88.9457C109.172 89.1016 108.983 89.2575 108.972 89.2909C108.972 89.3243 109.694 89.3466 110.582 89.3466C111.471 89.3466 112.193 89.3243 112.193 89.2909C112.193 89.2575 112.004 89.135 111.782 89.0125C111.104 88.645 110.96 88.0994 110.849 85.449C110.805 84.2241 110.76 82.1194 110.76 80.7831L110.749 78.3443L110.982 78.5559C111.338 78.8677 117.725 85.8833 119.469 87.8878C120.313 88.8455 121.035 89.625 121.091 89.625C121.135 89.625 121.191 87.1528 121.213 84.135C121.246 78.8454 121.257 78.6338 121.479 78.155C121.613 77.8766 121.868 77.5091 122.057 77.3532C122.257 77.1861 122.413 77.0414 122.413 77.0191C122.413 76.9968 121.713 76.9857 120.857 76.9857C120.002 76.9857 119.302 76.9968 119.302 77.0191C119.302 77.0302 119.502 77.2196 119.747 77.4423C120.524 78.1438 120.613 78.6784 120.669 82.9434L120.713 86.5515L119.091 84.8811C117.114 82.8432 112.937 78.2997 112.337 77.5536L111.915 77.008L110.605 76.9968C109.894 76.9857 109.305 77.008 109.305 77.0191Z" fill="#341D2B"/>
<path d="M25.6149 96.8166C23.3821 97.3623 21.5826 99.1997 21.0383 101.494C20.6828 103.008 21.0161 104.857 21.8714 106.204C22.649 107.418 24.1042 108.465 25.5149 108.832C27.2367 109.278 29.7582 108.799 30.7247 107.83C30.9801 107.574 30.9912 107.507 30.9912 105.681C30.9912 103.509 30.9912 103.509 30.0804 103.565L29.4916 103.598L29.4361 105.202L29.3806 106.817L28.7141 107.084C27.4144 107.619 25.8815 107.507 24.6929 106.806C24.082 106.449 23.2044 105.48 22.8934 104.835C21.6048 102.073 23.3044 98.8657 26.3591 98.2977C27.3367 98.1196 28.3475 98.2977 29.325 98.81C29.7138 99.0216 30.1026 99.1997 30.1803 99.1997C30.3359 99.1997 30.8802 98.398 30.8802 98.1641C30.8802 97.7743 29.7471 97.1396 28.4919 96.8055C27.6921 96.6051 26.4924 96.6051 25.6149 96.8166Z" fill="#341D2B"/>
<path d="M60.0734 96.8193C57.3297 97.4763 55.3302 100.038 55.3191 102.888C55.3191 103.679 55.6746 105.071 56.0633 105.806C56.5521 106.719 57.8073 107.922 58.7626 108.378C59.8401 108.902 60.5844 109.047 61.8729 108.969C64.5833 108.835 66.7938 107.042 67.4826 104.425C67.6936 103.634 67.6936 102.087 67.4826 101.274C66.9049 99.0687 64.9832 97.2313 62.7838 96.7636C62.0062 96.5965 60.8621 96.6188 60.0734 96.8193ZM63.3392 98.6122C65.7164 99.7257 66.7494 102.398 65.683 104.692C64.2834 107.666 60.551 108.356 58.2517 106.062C57.5963 105.394 57.2852 104.837 57.0409 103.913C56.5077 101.864 57.4963 99.6812 59.418 98.7124C60.2178 98.3003 60.6843 98.2001 61.7063 98.2447C62.4394 98.2669 62.7394 98.3338 63.3392 98.6122Z" fill="#341D2B"/>
<path d="M39.079 96.8681C38.8901 96.9684 38.879 97.3693 38.879 102.792C38.879 107.18 38.9124 108.65 39.0123 108.75C39.1567 108.895 40.0787 108.928 40.2898 108.795C40.3897 108.728 40.4342 108.115 40.4564 106.601L40.4897 104.485L42.3003 104.452L44.0999 104.429L45.1885 106.623L46.266 108.828L46.7547 108.862C47.3212 108.906 47.7656 108.817 47.7656 108.661C47.7656 108.605 47.2879 107.559 46.7103 106.356L45.6439 104.151L45.8994 103.951C46.7881 103.271 47.0102 103.026 47.3435 102.347C47.6767 101.668 47.71 101.49 47.71 100.643C47.71 99.8526 47.6656 99.5965 47.4212 99.0731C46.8436 97.8592 45.8883 97.102 44.6109 96.8681C43.7666 96.7122 39.3345 96.7122 39.079 96.8681ZM44.522 98.4383C45.144 98.5942 45.8994 99.2958 46.0993 99.9194C46.4215 100.91 45.9549 102.091 45.0441 102.614C44.6331 102.848 44.4664 102.87 42.5225 102.87H40.4342V100.666C40.4342 99.4517 40.4675 98.416 40.5119 98.3826C40.6341 98.249 43.9777 98.2936 44.522 98.4383Z" fill="#341D2B"/>
<path d="M75.6024 96.9308C75.4469 97.0756 75.4247 97.5878 75.4247 100.795C75.4247 105.617 75.5358 106.096 76.891 107.51C77.8129 108.468 78.7905 108.913 80.1234 108.98C82.334 109.091 84.0446 108.089 84.9444 106.151L85.2554 105.494L85.2887 101.263C85.3221 96.5299 85.3665 96.7526 84.5223 96.7526C83.7336 96.7526 83.7558 96.6524 83.7558 100.929C83.7558 104.169 83.7225 104.848 83.5781 105.294C83.0893 106.742 81.9896 107.488 80.3678 107.488C79.0571 107.488 78.0573 106.886 77.4464 105.717L77.1465 105.16L77.1131 101.151C77.0909 97.2426 77.0798 97.1424 76.8576 96.9419C76.5688 96.7081 75.8357 96.697 75.6024 96.9308Z" fill="#341D2B"/>
<path d="M93.6644 96.8385C93.5644 96.9054 93.5311 98.1971 93.5533 102.885L93.5867 108.832L94.1754 108.865C94.5197 108.888 94.8419 108.843 94.9307 108.765C95.0529 108.665 95.0863 108.208 95.0863 106.493V104.344L96.9524 104.3C98.6631 104.266 98.8519 104.244 99.4185 103.977C102.34 102.607 102.329 98.4755 99.3962 97.1281C98.6964 96.8163 98.6742 96.8051 96.2526 96.7717C94.9085 96.7606 93.7422 96.7829 93.6644 96.8385ZM98.8964 98.6314C100.14 99.3998 100.407 100.903 99.4962 101.95C98.8964 102.64 98.4743 102.763 96.6747 102.763H95.0863V100.525V98.2862L96.7858 98.3308C98.341 98.3642 98.5076 98.3864 98.8964 98.6314Z" fill="#341D2B"/>
</svg>
